<?xml version="1.0" encoding="UTF-8" standalone="no"?><!-- Generator: Gravit.io --><svg xmlns="http://www.w3.org/2000/svg" xmlns:xlink="http://www.w3.org/1999/xlink" style="isolation:isolate" viewBox="0 0 500 500" width="500pt" height="500pt"><defs><clipPath id="_clipPath_FCjtchewx80nW8V1Y9jDK41lzLNbYX2z"><rect width="500" height="500"/></clipPath></defs><g clip-path="url(#_clipPath_FCjtchewx80nW8V1Y9jDK41lzLNbYX2z)"><path d="M 90.14 38 L 188.86 38 C 194.732 38 199.5 42.768 199.5 48.64 L 199.5 451.36 C 199.5 457.232 194.732 462 188.86 462 L 90.14 462 C 84.268 462 79.5 457.232 79.5 451.36 L 79.5 48.64 C 79.5 42.768 84.268 38 90.14 38 Z" style="stroke:none;fill:#00A8FF;stroke-miterlimit:10;"/><path d="M 311.14 38 L 409.86 38 C 415.732 38 420.5 42.768 420.5 48.64 L 420.5 451.36 C 420.5 457.232 415.732 462 409.86 462 L 311.14 462 C 305.268 462 300.5 457.232 300.5 451.36 L 300.5 48.64 C 300.5 42.768 305.268 38 311.14 38 Z" style="stroke:none;fill:#00A8FF;stroke-miterlimit:10;"/></g></svg>